<svg id="SvgjsSvg1001" width="288" height="288" xmlns="http://www.w3.org/2000/svg" version="1.1" xmlns:xlink="http://www.w3.org/1999/xlink" xmlns:svgjs="http://svgjs.com/svgjs"><defs id="SvgjsDefs1002"></defs><g id="SvgjsG1008"><svg xmlns="http://www.w3.org/2000/svg" width="288" height="288" viewBox="0 0 16 16"><path d="M 15.820312 13.03125 L 9.15625 1.65625 C 8.644531 0.78125 7.359375 0.78125 6.84375 1.65625 L 0.183594 13.03125 C -0.332031 13.902344 0.308594 15 1.335938 15 L 14.667969 15 C 15.691406 15 16.332031 13.90625 15.820312 13.03125 Z M 7.25 5.25 C 7.25 4.835938 7.585938 4.5 8 4.5 C 8.414062 4.5 8.75 4.835938 8.75 5.25 L 8.75 9.25 C 8.75 9.664062 8.414062 10 8.027344 10 C 7.640625 10 7.25 9.664062 7.25 9.25 Z M 8 13 C 7.457031 13 7.015625 12.558594 7.015625 12.015625 C 7.015625 11.476562 7.457031 11.035156 8 11.035156 C 8.542969 11.035156 8.984375 11.476562 8.984375 12.015625 C 8.980469 12.558594 8.542969 13 8 13 Z M 8 13 " fill="#e41749" class="color000 svgShape"></path></svg></g></svg>